<svg width="24" height="24" viewBox="0 0 24 24" fill="none" xmlns="http://www.w3.org/2000/svg">
<g clip-path="url(#clip0_467_229)">
<path d="M12.0552 8.99996V13M12.0552 17H12.065M10.3391 3.95696L2.12706 18.017C1.95786 18.3177 1.86835 18.6585 1.86744 19.0057C1.86653 19.3529 1.95424 19.6943 2.12185 19.9959C2.28947 20.2975 2.53115 20.5489 2.82286 20.7251C3.11458 20.9012 3.44617 20.996 3.78467 21H20.2097C20.5482 20.996 20.8798 20.9012 21.1715 20.7251C21.4632 20.5489 21.7049 20.2975 21.8725 19.9959C22.0401 19.6943 22.1279 19.3529 22.1269 19.0057C22.126 18.6585 22.0365 18.3177 21.8673 18.017L13.6543 3.95696C13.4814 3.66495 13.238 3.42355 12.9477 3.25602C12.6574 3.08849 12.3298 3.00049 11.9967 3.00049C11.6636 3.00049 11.3361 3.08849 11.0457 3.25602C10.7554 3.42355 10.512 3.66495 10.3391 3.95696Z" stroke="#444b59" stroke-width="2" stroke-linecap="round" stroke-linejoin="round"/>
</g>
<defs>
<clipPath id="clip0_467_229">
<rect width="23.4017" height="24" fill="white" transform="translate(0.354492)"/>
</clipPath>
</defs>
</svg>
