<svg width="30" height="35" viewBox="0 0 30 35" fill="none" xmlns="http://www.w3.org/2000/svg">
<path d="M19 1V8.33333C19 8.81956 19.2107 9.28588 19.5858 9.6297C19.9609 9.97351 20.4696 10.1667 21 10.1667H29M19 1H5C3.93913 1 2.92172 1.38631 2.17157 2.07394C1.42143 2.76158 1 3.69421 1 4.66667V30.3333C1 31.3058 1.42143 32.2384 2.17157 32.9261C2.92172 33.6137 3.93913 34 5 34H25C26.0609 34 27.0783 33.6137 27.8284 32.9261C28.5786 32.2384 29 31.3058 29 30.3333V10.1667M19 1L29 10.1667M15 15.6667V26.6667M9 21.1667H21" stroke="#6A6180" stroke-width="2" stroke-linecap="round" stroke-linejoin="round"/>
</svg>
