<?xml version="1.0" encoding="utf-8"?>
<!-- Svg Vector Icons : http://www.onlinewebfonts.com/icon -->
<!DOCTYPE svg PUBLIC "-//W3C//DTD SVG 1.1//EN" "http://www.w3.org/Graphics/SVG/1.1/DTD/svg11.dtd">
<svg version="1.1" xmlns="http://www.w3.org/2000/svg" xmlns:xlink="http://www.w3.org/1999/xlink" x="0px" y="0px" viewBox="0 0 256 256" enable-background="new 0 0 256 256" xml:space="preserve">
<metadata> Svg Vector Icons : http://www.onlinewebfonts.com/icon </metadata>
<g><g><g><path fill="#000000" d="M120.1,11c-4.5,1.3-7.3,2.7-10.8,5.3c-5.3,4-9.7,10.8-11.1,17.1l-0.7,3l-11.2,0.3c-9.7,0.3-11.5,0.4-13.8,1.3c-8.7,3.5-14.4,10-16,18.3c-0.4,2.2-0.5,21.2-0.4,67.7l0.2,64.6l1.2,2.9c2.6,6.3,8,11.7,14.4,14.3c2.8,1.2,3.2,1.2,27.5,1.3l24.6,0.2v6.5c0,8.8,0.6,12.3,3.1,17.4c3.5,7,9.6,12.2,17.1,14.1c3.1,0.8,7.2,1,8.7,0.5c1.5-0.6,2.4-3,1.7-4.8c-0.7-1.9-1.8-2.6-4.2-2.6c-4.9,0-11.6-3.6-14.7-7.7c-3-4.1-3.6-6.8-3.6-15.5v-7.9l24.7-0.2c24.3-0.2,24.7-0.2,27.5-1.3c6.4-2.6,11.8-8,14.4-14.3l1.2-2.9l0.2-64.9c0.1-47.7,0-65.6-0.4-67.7c-1.9-8.9-9-16.2-18.1-18.6c-2.2-0.6-5.7-0.8-13-0.8h-10l-0.6-3c-1.6-8.3-8.7-17.1-16.8-20.8C134.8,9.9,126.2,9.2,120.1,11z M132.7,18.2c6.6,1.4,13,6.4,15.8,12.4c1,2,1.8,5.1,2.2,7.8c0.5,3.2,0.9,4.6,1.6,5.2c0.6,0.5,2.6,0.7,6,0.7c17,0.1,21,0.4,23.9,1.6c3.9,1.8,6.3,4.1,8.2,8l1.7,3.4l0.2,18l0.2,18H128H63.6l0.2-18l0.2-18l1.3-2.8c3.7-7.9,8.7-10.2,22.2-10.2c13.7,0,15.4-0.1,16.3-0.7c0.7-0.5,1.1-2,1.6-5.1c0.9-5.8,3-10.3,6.5-13.8C117.4,18.9,125.1,16.6,132.7,18.2z M192.4,142.7c0,44.6,0,44.7-2.8,49.1c-2,3.1-5.3,5.6-8.9,6.7c-3.2,1-4.9,1-52.7,1c-48.7,0-49.5,0-52.9-1.1c-2.9-0.9-3.9-1.6-6.3-3.9c-5.2-5.2-4.8-1.7-5-50.6l-0.2-42.5H128h64.4V142.7z"/><path fill="#000000" d="M122.8,30.3c-6.7,3.5-8.5,11.9-3.7,17.5c2.5,2.9,5.3,4.2,8.8,4.2c7,0,12.6-6.6,11.5-13.4c-0.9-5.1-6.3-9.7-11.5-9.7C126.3,28.9,124.7,29.4,122.8,30.3z M130.7,38c1.2,1.1,1.1,3.9-0.2,5.2c-2.3,2.3-6.1,0.6-6.1-2.7C124.4,37.1,128,35.6,130.7,38z"/><path fill="#000000" d="M148.4,74.9c-1.4,1.4-1.3,4.1,0.2,5.5c1.1,1.1,1.6,1.1,11.5,1.1c5.8,0,10.7-0.2,11.3-0.5c2.2-1.2,2-5.9-0.3-6.8c-0.5-0.2-5.6-0.3-11.3-0.3C150.1,73.9,149.4,73.9,148.4,74.9z"/><path fill="#000000" d="M148.4,114.2c-1.5,1.5-1.4,4.2,0.3,5.6c1.3,1,2,1.1,11.5,1.1c9.9,0,10.2-0.1,11.5-1.2c1.7-1.5,1.8-4.2,0.2-5.6c-1-0.8-2.4-0.9-11.8-0.9C150.1,113.2,149.4,113.2,148.4,114.2z"/><path fill="#000000" d="M148.7,133.7c-1.7,1.3-1.8,4-0.3,5.6c1,1,1.7,1,11.8,1c10.1,0,10.8-0.1,11.7-1c1.4-1.4,1.3-4.1-0.2-5.5c-1.1-1.1-1.6-1.1-11.4-1.1C150.7,132.6,150,132.7,148.7,133.7z"/><path fill="#000000" d="M149.6,152.5c-2.5,1-3,4.9-0.9,6.6c1.3,1,2,1.1,11.4,1.1c9.4,0,10.2-0.1,11.4-1.1c1.7-1.4,1.9-4.4,0.3-5.9c-1-0.9-2-1-11.1-1.1C155.2,152.1,150.2,152.3,149.6,152.5z"/><path fill="#000000" d="M148.4,173c-1.4,1.4-1.3,4.1,0.2,5.5c1.1,1.1,1.6,1.1,11.7,1.1c9.9,0,10.6,0,11.6-1c0.6-0.6,1-1.7,1-2.8s-0.4-2.2-1-2.8c-1-1-1.7-1-11.7-1C150.1,171.9,149.4,172,148.4,173z"/></g></g></g>
</svg>