<svg width="25" height="21" viewBox="0 0 25 21" fill="none" xmlns="http://www.w3.org/2000/svg">
<path d="M7.6063 6.26491V4.0249C7.6063 3.5349 8.04881 3.1499 8.61201 3.1499C9.17521 3.1499 9.61772 3.5349 9.61772 4.0249V6.26491C9.61772 6.75491 9.17521 7.13991 8.61201 7.13991C8.04881 7.13991 7.6063 6.75491 7.6063 6.26491ZM16.2554 7.13991C16.8186 7.13991 17.2612 6.75491 17.2612 6.26491V4.0249C17.2612 3.5349 16.8186 3.1499 16.2554 3.1499C15.6922 3.1499 15.2497 3.5349 15.2497 4.0249V6.26491C15.2497 6.75491 15.6922 7.13991 16.2554 7.13991ZM21.6863 5.14489V16.9749C21.6863 17.3599 21.3242 17.6749 20.8817 17.6749H3.98572C3.54321 17.6749 3.18115 17.3599 3.18115 16.9749V5.14489C3.18115 4.75989 3.54321 4.3749 3.98572 4.3749H5.85636C6.29888 4.3749 6.66093 4.6899 6.66093 5.0749C6.66093 5.4599 6.29888 5.7749 5.85636 5.7749H4.77019V8.7499H20.057V5.7749H18.991C18.5485 5.7749 18.1864 5.4599 18.1864 5.0749C18.1864 4.6899 18.5485 4.3749 18.991 4.3749H20.8616C21.3242 4.3749 21.6863 4.75989 21.6863 5.14489ZM20.0772 16.2749V9.9749H4.7903V16.2749H20.0772ZM11.1665 5.7749H13.7009C14.1434 5.7749 14.5055 5.4599 14.5055 5.0749C14.5055 4.6899 14.1434 4.3749 13.7009 4.3749H11.1665C10.724 4.3749 10.3619 4.6899 10.3619 5.0749C10.3619 5.4599 10.724 5.7749 11.1665 5.7749Z" fill="#444B59"/>
</svg>
