<?xml version="1.0"?>
<svg width="256" height="256" xmlns="http://www.w3.org/2000/svg" xmlns:svg="http://www.w3.org/2000/svg" enable-background="new 0 0 256 256" version="1.1" xml:space="preserve">
 <title>critico</title>
 <metadata>Svg Vector Icons : http://www.onlinewebfonts.com/icon</metadata>
 <g class="layer">
  <title>Layer 1</title>
  <g id="svg_1" transform="matrix(1 0 0 1 0 0)">
   <g id="svg_2">
    <g id="svg_3">
     <path d="m120.1,11c-4.5,1.3 -7.3,2.7 -10.8,5.3c-5.3,4 -9.7,10.8 -11.1,17.1l-0.7,3l-11.2,0.3c-9.7,0.3 -11.5,0.4 -13.8,1.3c-8.7,3.5 -14.4,10 -16,18.3c-0.4,2.2 -0.5,21.2 -0.4,67.7l0.2,64.6l1.2,2.9c2.6,6.3 8,11.7 14.4,14.3c2.8,1.2 3.2,1.2 27.5,1.3l24.6,0.2l0,6.5c0,8.8 0.6,12.3 3.1,17.4c3.5,7 9.6,12.2 17.1,14.1c3.1,0.8 7.2,1 8.7,0.5c1.5,-0.6 2.4,-3 1.7,-4.8c-0.7,-1.9 -1.8,-2.6 -4.2,-2.6c-4.9,0 -11.6,-3.6 -14.7,-7.7c-3,-4.1 -3.6,-6.8 -3.6,-15.5l0,-7.9l24.7,-0.2c24.3,-0.2 24.7,-0.2 27.5,-1.3c6.4,-2.6 11.8,-8 14.4,-14.3l1.2,-2.9l0.2,-64.9c0.1,-47.7 0,-65.6 -0.4,-67.7c-1.9,-8.9 -9,-16.2 -18.1,-18.6c-2.2,-0.6 -5.7,-0.8 -13,-0.8l-10,0l-0.6,-3c-1.6,-8.3 -8.7,-17.1 -16.8,-20.8c-6.4,-2.9 -15,-3.6 -21.1,-1.8zm12.6,7.2c6.6,1.4 13,6.4 15.8,12.4c1,2 1.8,5.1 2.2,7.8c0.5,3.2 0.9,4.6 1.6,5.2c0.6,0.5 2.6,0.7 6,0.7c17,0.1 21,0.4 23.9,1.6c3.9,1.8 6.3,4.1 8.2,8l1.7,3.4l0.2,18l0.2,18l-64.5,0l-64.4,0l0.2,-18l0.2,-18l1.3,-2.8c3.7,-7.9 8.7,-10.2 22.2,-10.2c13.7,0 15.4,-0.1 16.3,-0.7c0.7,-0.5 1.1,-2 1.6,-5.1c0.9,-5.8 3,-10.3 6.5,-13.8c5.5,-5.8 13.2,-8.1 20.8,-6.5zm59.7,124.5c0,44.6 0,44.7 -2.8,49.1c-2,3.1 -5.3,5.6 -8.9,6.7c-3.2,1 -4.9,1 -52.7,1c-48.7,0 -49.5,0 -52.9,-1.1c-2.9,-0.9 -3.9,-1.6 -6.3,-3.9c-5.2,-5.2 -4.8,-1.7 -5,-50.6l-0.2,-42.5l64.4,0l64.4,0l0,41.3z" fill="#300000" id="svg_4"/>
     <path d="m122.8,30.3c-6.7,3.5 -8.5,11.9 -3.7,17.5c2.5,2.9 5.3,4.2 8.8,4.2c7,0 12.6,-6.6 11.5,-13.4c-0.9,-5.1 -6.3,-9.7 -11.5,-9.7c-1.6,0 -3.2,0.5 -5.1,1.4zm7.9,7.7c1.2,1.1 1.1,3.9 -0.2,5.2c-2.3,2.3 -6.1,0.6 -6.1,-2.7c0,-3.4 3.6,-4.9 6.3,-2.5z" fill="#300000" id="svg_5"/>
     <path d="m148.4,74.9c-1.4,1.4 -1.3,4.1 0.2,5.5c1.1,1.1 1.6,1.1 11.5,1.1c5.8,0 10.7,-0.2 11.3,-0.5c2.2,-1.2 2,-5.9 -0.3,-6.8c-0.5,-0.2 -5.6,-0.3 -11.3,-0.3c-9.7,0 -10.4,0 -11.4,1z" fill="#300000" id="svg_6"/>
     <path d="m148.4,114.2c-1.5,1.5 -1.4,4.2 0.3,5.6c1.3,1 2,1.1 11.5,1.1c9.9,0 10.2,-0.1 11.5,-1.2c1.7,-1.5 1.8,-4.2 0.2,-5.6c-1,-0.8 -2.4,-0.9 -11.8,-0.9c-10,0 -10.7,0 -11.7,1z" fill="#300000" id="svg_7"/>
     <path d="m148.7,133.7c-1.7,1.3 -1.8,4 -0.3,5.6c1,1 1.7,1 11.8,1c10.1,0 10.8,-0.1 11.7,-1c1.4,-1.4 1.3,-4.1 -0.2,-5.5c-1.1,-1.1 -1.6,-1.1 -11.4,-1.1c-9.6,-0.1 -10.3,0 -11.6,1z" fill="#300000" id="svg_8"/>
     <path d="m149.6,152.5c-2.5,1 -3,4.9 -0.9,6.6c1.3,1 2,1.1 11.4,1.1c9.4,0 10.2,-0.1 11.4,-1.1c1.7,-1.4 1.9,-4.4 0.3,-5.9c-1,-0.9 -2,-1 -11.1,-1.1c-5.5,0 -10.5,0.2 -11.1,0.4z" fill="#300000" id="svg_9"/>
     <path d="m148.4,173c-1.4,1.4 -1.3,4.1 0.2,5.5c1.1,1.1 1.6,1.1 11.7,1.1c9.9,0 10.6,0 11.6,-1c0.6,-0.6 1,-1.7 1,-2.8s-0.4,-2.2 -1,-2.8c-1,-1 -1.7,-1 -11.7,-1c-10.1,-0.1 -10.8,0 -11.8,1z" fill="#300000" id="svg_10"/>
    </g>
   </g>
  </g>
  <rect fill="#ff0000" height="21.51" id="svg_16" stroke="#ff0000" width="127.43" x="64.4" y="160.36"/>
  <rect fill="#ff0000" height="18.82" id="svg_17" stroke="#ff0000" width="97.84" x="79.12" y="180.1"/>
  <ellipse cx="78.81" cy="185.79" fill="#ff0000" id="svg_21" rx="14.74" ry="13.08" stroke="#ff0000"/>
  <ellipse cx="177.46" cy="184.06" fill="#ff0000" id="svg_22" rx="14.74" ry="14.87" stroke="#ff0000" transform="matrix(1 0 0 1 0 0)"/>
  <rect fill="#300000" height="7.5" id="svg_12" stroke="#300000" width="128" x="64.12" y="152.38"/>
  <rect fill="#ffffff" height="8.25" id="svg_13" stroke="#ffffff" width="127.75" x="64.25" y="93.25"/>
  <rect fill="#300000" height="5.75" id="svg_14" stroke="#300000" transform="matrix(1 0 0 1 0 0)" width="21.2" x="148.88" y="95.13"/>
  <ellipse cx="150.58" cy="97.95" fill="#300000" id="svg_15" rx="3.86" ry="3.07" stroke="#300000"/>
  <ellipse cx="168.91" cy="98.12" fill="#300000" id="svg_18" rx="3.86" ry="2.89" stroke="#300000" transform="matrix(1 0 0 1 0 0)"/>
 </g>
</svg>