<svg width="256" height="256" viewBox="0 0 256 256" fill="none" xmlns="http://www.w3.org/2000/svg">
<path d="M121.5 12.7999C117 14.0999 114.2 15.4999 110.7 18.0999C105.4 22.0999 101 28.8999 99.6 35.1999L98.9 38.1999L87.7 38.4999C78 38.7999 76.2 38.8999 73.9 39.7999C65.2 43.2999 59.5 49.7999 57.9 58.0999C57.5 60.2999 57.4 79.2999 57.5 125.8L57.7 190.4L58.9 193.3C61.5 199.6 66.9 205 73.3 207.6C76.1 208.8 76.5 208.8 100.8 208.9L125.4 209.1V215.6C125.4 224.4 126 227.9 128.5 233C132 240 138.1 245.2 145.6 247.1C148.7 247.9 152.8 248.1 154.3 247.6C155.8 247 156.7 244.6 156 242.8C155.3 240.9 154.2 240.2 151.8 240.2C146.9 240.2 140.2 236.6 137.1 232.5C134.1 228.4 133.5 225.7 133.5 217V209.1L158.2 208.9C182.5 208.7 182.9 208.7 185.7 207.6C192.1 205 197.5 199.6 200.1 193.3L201.3 190.4L201.5 125.5C201.6 77.7999 201.5 59.8999 201.1 57.7999C199.2 48.8999 192.1 41.5999 183 39.1999C180.8 38.5999 177.3 38.3999 170 38.3999H160L159.4 35.3999C157.8 27.0999 150.7 18.2999 142.6 14.5999C136.2 11.6999 127.6 10.9999 121.5 12.7999ZM134.1 19.9999C140.7 21.3999 147.1 26.3999 149.9 32.3999C150.9 34.3999 151.7 37.4999 152.1 40.1999C152.6 43.3999 153 44.7999 153.7 45.3999C154.3 45.8999 156.3 46.0999 159.7 46.0999C176.7 46.1999 180.7 46.4999 183.6 47.6999C187.5 49.4999 189.9 51.7999 191.8 55.6999L193.5 59.0999L193.7 77.0999L193.9 95.0999H129.4H65L65.2 77.0999L65.4 59.0999L66.7 56.2999C70.4 48.3999 75.4 46.0999 88.9 46.0999C102.6 46.0999 104.3 45.9999 105.2 45.3999C105.9 44.8999 106.3 43.3999 106.8 40.2999C107.7 34.4999 109.8 29.9999 113.3 26.4999C118.8 20.6999 126.5 18.3999 134.1 19.9999ZM193.8 144.5C193.8 189.1 193.8 189.2 191 193.6C189 196.7 185.7 199.2 182.1 200.3C178.9 201.3 177.2 201.3 129.4 201.3C80.7 201.3 79.9 201.3 76.5 200.2C73.6 199.3 72.6 198.6 70.2 196.3C65 191.1 65.4 194.6 65.2 145.7L65 103.2H129.4H193.8V144.5Z" fill="black"/>
<path d="M122.8 30.3001C116.1 33.8001 114.3 42.2001 119.1 47.8001C121.6 50.7001 124.4 52.0001 127.9 52.0001C134.9 52.0001 140.5 45.4001 139.4 38.6001C138.5 33.5001 133.1 28.9001 127.9 28.9001C126.3 28.9001 124.7 29.4001 122.8 30.3001ZM130.7 38.0001C131.9 39.1001 131.8 41.9001 130.5 43.2001C128.2 45.5001 124.4 43.8001 124.4 40.5001C124.4 37.1001 128 35.6001 130.7 38.0001Z" fill="black"/>
<path d="M148.4 74.9001C147 76.3001 147.1 79.0001 148.6 80.4001C149.7 81.5001 150.2 81.5001 160.1 81.5001C165.9 81.5001 170.8 81.3001 171.4 81.0001C173.6 79.8001 173.4 75.1001 171.1 74.2001C170.6 74.0001 165.5 73.9001 159.8 73.9001C150.1 73.9001 149.4 73.9001 148.4 74.9001Z" fill="black"/>
<path d="M148.4 114.2C146.9 115.7 147 118.4 148.7 119.8C150 120.8 150.7 120.9 160.2 120.9C170.1 120.9 170.4 120.8 171.7 119.7C173.4 118.2 173.5 115.5 171.9 114.1C170.9 113.3 169.5 113.2 160.1 113.2C150.1 113.2 149.4 113.2 148.4 114.2Z" fill="black"/>
<path d="M148.7 133.7C147 135 146.9 137.7 148.4 139.3C149.4 140.3 150.1 140.3 160.2 140.3C170.3 140.3 171 140.2 171.9 139.3C173.3 137.9 173.2 135.2 171.7 133.8C170.6 132.7 170.1 132.7 160.3 132.7C150.7 132.6 150 132.7 148.7 133.7Z" fill="black"/>
<path d="M149.6 152.5C147.1 153.5 146.6 157.4 148.7 159.1C150 160.1 150.7 160.2 160.1 160.2C169.5 160.2 170.3 160.1 171.5 159.1C173.2 157.7 173.4 154.7 171.8 153.2C170.8 152.3 169.8 152.2 160.7 152.1C155.2 152.1 150.2 152.3 149.6 152.5Z" fill="black"/>
<path d="M148.4 173C147 174.4 147.1 177.1 148.6 178.5C149.7 179.6 150.2 179.6 160.3 179.6C170.2 179.6 170.9 179.6 171.9 178.6C172.5 178 172.9 176.9 172.9 175.8C172.9 174.7 172.5 173.6 171.9 173C170.9 172 170.2 172 160.2 172C150.1 171.9 149.4 172 148.4 173Z" fill="black"/>
<path d="M64 156H194" stroke="black" stroke-width="8.5"/>
<path d="M65 99L194 99" stroke="white" stroke-width="8.5"/>
<path d="M149.055 96C147.555 97.5 147.655 100.2 149.355 101.6C150.655 102.6 151.355 102.7 160.855 102.7C170.755 102.7 171.055 102.6 172.355 101.5C174.055 100 174.155 97.3 172.555 95.9C171.555 95.1 170.155 95 160.755 95C150.755 95 150.055 95 149.055 96Z" fill="black"/>
</svg>
