<svg width="23" height="19" viewBox="0 0 23 19" fill="none" xmlns="http://www.w3.org/2000/svg">
<path d="M1.25389 18.0039C1.02889 18.0039 0.803898 17.9539 0.603898 17.8289C0.00389826 17.4789 -0.17112 16.7039 0.17888 16.1039L3.2289 10.9789C3.4539 10.6289 3.82889 10.3789 4.25389 10.3789C4.67889 10.3539 5.0789 10.5539 5.3289 10.9039L6.62889 12.7039L9.37889 8.00389C9.57889 7.65389 9.97889 7.40389 10.3789 7.37889C10.8039 7.35389 11.2039 7.55389 11.4539 7.87889L13.8539 11.1039L20.1789 0.603898C20.5289 0.00389826 21.3039 -0.17112 21.9039 0.17888C22.5039 0.52888 22.6789 1.30389 22.3289 1.90389L15.0539 14.0039C14.8289 14.3539 14.4539 14.5789 14.0539 14.6039C13.6289 14.6289 13.2289 14.4289 12.9789 14.1039L10.5789 10.9039L7.80388 15.6289C7.57888 16.0039 7.20389 16.2289 6.77889 16.2539C6.35389 16.2789 5.9539 16.0789 5.7039 15.7289L4.40389 13.9289L2.3289 17.4039C2.1039 17.7789 1.67889 18.0039 1.25389 18.0039Z" fill="#EB5757"/>
</svg>
