<svg width="27" height="21" viewBox="0 0 27 21" fill="none" xmlns="http://www.w3.org/2000/svg">
<path fill-rule="evenodd" clip-rule="evenodd" d="M9.61644 0C7.68819 0 6.04719 0.969243 5.43469 2.32337H0V3.77034L2.9589 5.53749V19.8249H0.739726C0.33119 19.8249 0 20.0859 0 20.4079C0 20.73 0.33119 20.991 0.739726 20.991H2.9589V21H23.6712V20.991H25.8904C26.299 20.991 26.6301 20.73 26.6301 20.4079C26.6301 20.0859 26.299 19.8249 25.8904 19.8249H23.6712V5.55801L27 3.79086V2.32337H13.7982C13.1857 0.969243 11.5447 0 9.61644 0ZM13.8023 4.66467C13.9658 4.29989 14.0548 3.90742 14.0548 3.4985V3.48952H24.9191L22.7056 4.66467H13.8023ZM12.9246 5.83084C12.112 6.54657 10.9309 6.99701 9.61644 6.99701C8.30194 6.99701 7.1209 6.54657 6.30824 5.83084H4.43836V19.8249H13.3151V10.4955H20.7123V19.8249H22.1918V5.83084H12.9246ZM5.17808 3.4985C5.17808 3.90742 5.26707 4.29989 5.43062 4.66467H3.94725L1.97963 3.48952H5.17808V3.4985ZM10.3562 2.91542V1.74925H8.87671V2.91542H7.39726V4.08159H8.87671V5.24776H10.3562V4.08159H11.8356V2.91542H10.3562ZM19.2329 11.6617V19.8249H14.7945V11.6617H19.2329Z" fill="#444B59"/>
</svg>
