<svg width="24" height="18" viewBox="0 0 24 18" fill="none" xmlns="http://www.w3.org/2000/svg">
<path d="M23.8626 6.88082C23.674 7.16804 23.3282 7.32868 22.9735 7.32868C22.7993 7.32868 22.623 7.28986 22.4617 7.20805L12.0004 1.93044L1.53779 7.20805C1.04848 7.45527 0.420453 7.30957 0.137531 6.88022C-0.145391 6.45206 0.0220389 5.90388 0.51271 5.65666L11.4879 0.120475C11.8057 -0.0401584 12.1945 -0.0401584 12.513 0.120475L23.4874 5.65666C23.9774 5.90447 24.1455 6.45266 23.8626 6.88082ZM21.2664 7.81177V16.1265C21.2664 16.6209 20.8072 17.0222 20.2414 17.0222H16.1007C15.5349 17.0222 15.0757 16.6209 15.0757 16.1265V13.4883C15.0757 12.0073 13.6952 10.8011 12.0004 10.8011C10.3056 10.8011 8.92518 12.0073 8.92518 13.4883V16.1265C8.92518 16.6209 8.46527 17.0222 7.90011 17.0222H3.75879C3.19295 17.0222 2.73371 16.6209 2.73371 16.1265V7.81177C2.73371 7.4917 2.92916 7.19611 3.24625 7.03607L11.4879 2.87931C11.8057 2.71927 12.1945 2.71927 12.513 2.87931L20.7539 7.03607C21.0703 7.19551 21.2664 7.4917 21.2664 7.81177ZM19.2163 8.3289L12.0004 4.68927L4.78387 8.3289V15.2314H6.87503V13.4889C6.87503 11.0185 9.17394 9.01025 12.0004 9.01025C14.8269 9.01025 17.1258 11.0185 17.1258 13.4889V15.2314H19.2163V8.3289Z" fill="#EB5757"/>
</svg>
