<svg width="30" height="30" viewBox="0 0 30 30" fill="none" xmlns="http://www.w3.org/2000/svg">
<g id="line chart">
<path id="XMLID 1083" d="M5.00633 24C4.78133 24 4.55634 23.95 4.35634 23.825C3.75634 23.475 3.58132 22.7 3.93132 22.1L6.98134 16.975C7.20634 16.625 7.58133 16.375 8.00633 16.375C8.43133 16.35 8.83135 16.55 9.08135 16.9L10.3813 18.7L13.1313 14C13.3313 13.65 13.7313 13.4 14.1313 13.375C14.5563 13.35 14.9563 13.55 15.2063 13.875L17.6063 17.1L23.9313 6.59999C24.2813 5.99999 25.0563 5.82497 25.6563 6.17497C26.2563 6.52497 26.4313 7.29998 26.0813 7.89998L18.8063 20C18.5813 20.35 18.2063 20.575 17.8063 20.6C17.3813 20.625 16.9813 20.425 16.7313 20.1L14.3313 16.9L11.5563 21.625C11.3313 22 10.9563 22.225 10.5313 22.25C10.1063 22.275 9.70635 22.075 9.45635 21.725L8.15633 19.925L6.08135 23.4C5.85635 23.775 5.43133 24 5.00633 24Z" fill="#EB5757"/>
</g>
</svg>
