<svg width="33" height="30" viewBox="0 0 33 30" fill="none" xmlns="http://www.w3.org/2000/svg">
<g id="map">
<path id="XMLID 1449" d="M27.8532 7.1999L22.2145 4.72491C22.1877 4.72491 22.1877 4.7249 22.1877 4.6999C22.161 4.6749 22.1076 4.67491 22.0808 4.67491C22.0541 4.67491 22.0007 4.6499 21.9739 4.6499C21.9472 4.6499 21.8938 4.6499 21.8671 4.6499C21.8403 4.6499 21.7869 4.6499 21.7602 4.6499C21.7334 4.6499 21.68 4.64991 21.6533 4.67491C21.6265 4.67491 21.5731 4.6999 21.5464 4.6999C21.5196 4.6999 21.5196 4.69991 21.4929 4.72491L16.2282 7.0249L10.9636 4.72491C10.9369 4.72491 10.9369 4.7249 10.9102 4.6999C10.8834 4.6749 10.83 4.67491 10.8033 4.67491C10.7765 4.67491 10.7231 4.6499 10.6964 4.6499C10.6696 4.6499 10.6162 4.6499 10.5895 4.6499C10.5627 4.6499 10.5093 4.6499 10.4826 4.6499C10.4558 4.6499 10.4024 4.64991 10.3757 4.67491C10.349 4.67491 10.2955 4.6999 10.2688 4.6999C10.2421 4.6999 10.242 4.69991 10.2153 4.72491L4.46962 7.1999C4.14893 7.3499 3.85499 7.6499 3.85499 7.9999V24.2499C3.85499 24.5499 4.09551 24.8249 4.36275 24.9999C4.5231 25.0999 4.73689 25.1499 4.89723 25.1499C5.03086 25.1499 5.19119 25.1249 5.32481 25.0749L10.6162 22.7749L15.8808 25.0749C15.9343 25.0999 15.9877 25.1249 16.0412 25.1249C16.0679 25.1249 16.0679 25.1249 16.0946 25.1249C16.1481 25.1249 16.2015 25.1499 16.2817 25.1499C16.3352 25.1499 16.4153 25.1499 16.4688 25.1249C16.4955 25.1249 16.4955 25.1249 16.5222 25.1249C16.5757 25.0999 16.6291 25.0999 16.6826 25.0749L21.9472 22.7749L27.2119 25.0749C27.3455 25.1249 27.4791 25.1499 27.6127 25.1499C27.7998 25.1499 27.9067 25.0999 28.0403 24.9999C28.3076 24.8249 28.4145 24.5499 28.4145 24.2499V7.9999C28.3343 7.6499 28.2007 7.3499 27.8532 7.1999ZM14.9722 22.8749L11.4981 21.2249V6.92491L14.9722 8.5749V22.8749ZM5.61877 8.5749L9.36015 6.92491V21.2249L5.61877 22.8749V8.5749ZM17.1102 8.5749L20.8515 6.92491V21.2249L17.1102 22.8749V8.5749ZM26.4636 22.8749L22.7222 21.2249V6.92491L26.4636 8.5749V22.8749Z" fill="white"/>
</g>
</svg>
