<svg width="33" height="30" viewBox="0 0 33 30" fill="none" xmlns="http://www.w3.org/2000/svg">
<path d="M27.8528 7.1999L22.214 4.72491C22.1872 4.72491 22.1872 4.7249 22.1872 4.6999C22.1605 4.6749 22.1071 4.67491 22.0803 4.67491C22.0536 4.67491 22.0002 4.6499 21.9734 4.6499C21.9467 4.6499 21.8933 4.6499 21.8666 4.6499C21.8398 4.6499 21.7864 4.6499 21.7597 4.6499C21.7329 4.6499 21.6795 4.64991 21.6528 4.67491C21.626 4.67491 21.5726 4.6999 21.5459 4.6999C21.5191 4.6999 21.5192 4.69991 21.4924 4.72491L16.2278 7.0249L10.9631 4.72491C10.9364 4.72491 10.9364 4.7249 10.9097 4.6999C10.883 4.6749 10.8295 4.67491 10.8028 4.67491C10.7761 4.67491 10.7226 4.6499 10.6959 4.6499C10.6691 4.6499 10.6157 4.6499 10.589 4.6499C10.5622 4.6499 10.5088 4.6499 10.4821 4.6499C10.4553 4.6499 10.4019 4.64991 10.3752 4.67491C10.3485 4.67491 10.295 4.6999 10.2683 4.6999C10.2416 4.6999 10.2415 4.69991 10.2148 4.72491L4.46913 7.1999C4.14844 7.3499 3.8545 7.6499 3.8545 7.9999V24.2499C3.8545 24.5499 4.09502 24.8249 4.36226 24.9999C4.52261 25.0999 4.7364 25.1499 4.89675 25.1499C5.03037 25.1499 5.19071 25.1249 5.32433 25.0749L10.6157 22.7749L15.8804 25.0749C15.9338 25.0999 15.9872 25.1249 16.0407 25.1249C16.0674 25.1249 16.0674 25.1249 16.0941 25.1249C16.1476 25.1249 16.201 25.1499 16.2812 25.1499C16.3347 25.1499 16.4148 25.1499 16.4683 25.1249C16.495 25.1249 16.495 25.1249 16.5217 25.1249C16.5752 25.0999 16.6286 25.0999 16.6821 25.0749L21.9467 22.7749L27.2114 25.0749C27.345 25.1249 27.4786 25.1499 27.6123 25.1499C27.7993 25.1499 27.9062 25.0999 28.0398 24.9999C28.3071 24.8249 28.414 24.5499 28.414 24.2499V7.9999C28.3338 7.6499 28.2002 7.3499 27.8528 7.1999ZM14.9717 22.8749L11.4976 21.2249V6.92491L14.9717 8.5749V22.8749ZM5.61829 8.5749L9.35966 6.92491V21.2249L5.61829 22.8749V8.5749ZM17.1097 8.5749L20.851 6.92491V21.2249L17.1097 22.8749V8.5749ZM26.4631 22.8749L22.7217 21.2249V6.92491L26.4631 8.5749V22.8749Z" fill="#EB5757"/>
</svg>
