<svg width="18" height="13" viewBox="0 0 18 13" fill="none" xmlns="http://www.w3.org/2000/svg">
<path d="M16.2375 5.08177H7.85625C7.29375 5.08177 6.84375 4.58192 6.84375 3.95711V1.14548C6.84375 0.520677 7.29375 0.0208269 7.85625 0.0208269H16.2375C16.8 0.0208269 17.25 0.520677 17.25 1.14548V3.95711C17.25 4.58192 16.8 5.08177 16.2375 5.08177ZM8.325 3.41562H15.75V1.68698H8.325V3.41562ZM16.2375 12.1004H7.85625C7.29375 12.1004 6.84375 11.6006 6.84375 10.9758V8.16413C6.84375 7.53932 7.29375 7.03947 7.85625 7.03947H16.2375C16.8 7.03947 17.25 7.53932 17.25 8.16413V10.9758C17.25 11.6006 16.8 12.1004 16.2375 12.1004ZM8.325 10.4343H15.75V8.70562H8.325V10.4343ZM4.44375 5.08177H1.05C0.468751 5.08177 0 4.56107 0 3.91544V1.1663C0 0.520672 0.468751 5.08468e-06 1.05 5.08468e-06H4.44375C5.025 5.08468e-06 5.49375 0.520672 5.49375 1.1663V3.91544C5.49375 4.56107 5.025 5.08177 4.44375 5.08177ZM1.5 3.41562H3.99375V1.68698H1.5V3.41562ZM4.44375 12.1004H1.05C0.468751 12.1004 0 11.5797 0 10.9341V8.18495C0 7.53931 0.468751 7.01865 1.05 7.01865H4.44375C5.025 7.01865 5.49375 7.53931 5.49375 8.18495V10.9341C5.49375 11.5797 5.025 12.1004 4.44375 12.1004ZM1.5 10.4343H3.99375V8.70562H1.5V10.4343Z" fill="#EB5757"/>
</svg>
