<svg width="23" height="16" viewBox="0 0 23 16" fill="none" xmlns="http://www.w3.org/2000/svg">
<path d="M15.575 10.1571C17.5 10.1571 19.075 8.53714 19.075 6.55714C19.075 4.57714 17.5 2.95714 15.575 2.95714C13.65 2.95714 12.075 4.57714 12.075 6.55714C12.075 8.53714 13.65 10.1571 15.575 10.1571ZM15.575 4.5C16.675 4.5 17.575 5.42571 17.575 6.55714C17.575 7.68857 16.675 8.61429 15.575 8.61429C14.475 8.61429 13.575 7.68857 13.575 6.55714C13.575 5.42571 14.475 4.5 15.575 4.5ZM3.925 4.88571C3.925 4.44857 4.25 4.11429 4.675 4.11429H9.02499C9.44999 4.11429 9.77499 4.44857 9.77499 4.88571C9.77499 5.32286 9.44999 5.65714 9.02499 5.65714H4.675C4.25 5.65714 3.925 5.32286 3.925 4.88571ZM9.02499 8.48571H4.675C4.25 8.48571 3.925 8.15143 3.925 7.71429C3.925 7.27714 4.25 6.94286 4.675 6.94286H9.02499C9.44999 6.94286 9.77499 7.27714 9.77499 7.71429C9.77499 8.15143 9.44999 8.48571 9.02499 8.48571ZM7.925 10.5429C7.925 10.98 7.6 11.3143 7.175 11.3143H4.64999C4.22499 11.3143 3.89999 10.98 3.89999 10.5429C3.89999 10.1057 4.22499 9.77143 4.64999 9.77143H7.175C7.6 9.77143 7.925 10.1057 7.925 10.5429ZM23 1.69717C23 0.771454 22.25 0 21.35 0H1.64999C0.749994 0 0 0.771454 0 1.69717V13.7314C0 14.6571 0.749994 15.4286 1.64999 15.4286H21.35C22.25 15.4286 23 14.6571 23 13.7314V1.69717ZM2 2.05714H21V12.78C20 11.7 18.075 10.98 17.35 10.7228C17.2 10.6714 17.025 10.6714 16.85 10.7228L15.575 11.1857L14.3 10.7228C14.15 10.6714 13.975 10.6972 13.8 10.7486C12.975 11.0314 10.6 11.8286 9.72501 13.3714H2V2.05714ZM11.925 13.3714C12.5 12.8571 13.25 12.6 14.05 12.2914L15.325 12.7543C15.475 12.8057 15.675 12.8057 15.825 12.7543L17.1 12.3171C17.9 12.6257 18.65 12.8829 19.225 13.3972H11.925V13.3714Z" fill="#EB5757"/>
</svg>
