<svg width="302" height="237" viewBox="0 0 302 237" fill="none" xmlns="http://www.w3.org/2000/svg">
<path d="M8 0.5H294C298.142 0.5 301.5 3.85786 301.5 8V229C301.5 233.142 298.142 236.5 294 236.5H8.00001C3.85787 236.5 0.5 233.142 0.5 229V8.00001C0.5 3.85787 3.85787 0.5 8 0.5Z" fill="#FAFAFC" stroke="#E6E6F0"/>
<path d="M28.2074 24.1108H26.8778C26.8267 23.8267 26.7315 23.5767 26.5923 23.3608C26.4531 23.1449 26.2827 22.9616 26.081 22.8111C25.8793 22.6605 25.6534 22.5469 25.4034 22.4702C25.1563 22.3935 24.8935 22.3551 24.6151 22.3551C24.1122 22.3551 23.6619 22.4815 23.2642 22.7344C22.8693 22.9872 22.5568 23.358 22.3267 23.8466C22.0994 24.3352 21.9858 24.9318 21.9858 25.6364C21.9858 26.3466 22.0994 26.946 22.3267 27.4347C22.5568 27.9233 22.8707 28.2926 23.2685 28.5426C23.6662 28.7926 24.1136 28.9176 24.6108 28.9176C24.8864 28.9176 25.1477 28.8807 25.3949 28.8068C25.6449 28.7301 25.8707 28.6179 26.0724 28.4702C26.2741 28.3224 26.4446 28.142 26.5838 27.929C26.7259 27.7131 26.8239 27.4659 26.8778 27.1875L28.2074 27.1918C28.1364 27.6207 27.9986 28.0156 27.794 28.3764C27.5923 28.7344 27.3324 29.044 27.0142 29.3054C26.6989 29.5639 26.3381 29.7642 25.9318 29.9062C25.5256 30.0483 25.0824 30.1193 24.6023 30.1193C23.8466 30.1193 23.1733 29.9403 22.5824 29.5824C21.9915 29.2216 21.5256 28.706 21.1847 28.0355C20.8466 27.3651 20.6776 26.5653 20.6776 25.6364C20.6776 24.7045 20.848 23.9048 21.1889 23.2372C21.5298 22.5668 21.9957 22.0526 22.5866 21.6946C23.1776 21.3338 23.8494 21.1534 24.6023 21.1534C25.0653 21.1534 25.4972 21.2202 25.8977 21.3537C26.3011 21.4844 26.6634 21.6776 26.9844 21.9332C27.3054 22.1861 27.571 22.4957 27.7812 22.8622C27.9915 23.2259 28.1335 23.642 28.2074 24.1108ZM32.4379 30.1321C31.8242 30.1321 31.2887 29.9915 30.8313 29.7102C30.3739 29.429 30.0188 29.0355 29.766 28.5298C29.5131 28.0241 29.3867 27.4332 29.3867 26.7571C29.3867 26.0781 29.5131 25.4844 29.766 24.9759C30.0188 24.4673 30.3739 24.0724 30.8313 23.7912C31.2887 23.5099 31.8242 23.3693 32.4379 23.3693C33.0515 23.3693 33.587 23.5099 34.0444 23.7912C34.5018 24.0724 34.8569 24.4673 35.1097 24.9759C35.3626 25.4844 35.489 26.0781 35.489 26.7571C35.489 27.4332 35.3626 28.0241 35.1097 28.5298C34.8569 29.0355 34.5018 29.429 34.0444 29.7102C33.587 29.9915 33.0515 30.1321 32.4379 30.1321ZM32.4421 29.0625C32.8398 29.0625 33.1694 28.9574 33.4308 28.7472C33.6921 28.5369 33.8853 28.2571 34.0103 27.9077C34.1381 27.5582 34.2021 27.1733 34.2021 26.7528C34.2021 26.3352 34.1381 25.9517 34.0103 25.6023C33.8853 25.25 33.6921 24.9673 33.4308 24.7543C33.1694 24.5412 32.8398 24.4347 32.4421 24.4347C32.0415 24.4347 31.7092 24.5412 31.445 24.7543C31.1836 24.9673 30.989 25.25 30.8612 25.6023C30.7362 25.9517 30.6737 26.3352 30.6737 26.7528C30.6737 27.1733 30.7362 27.5582 30.8612 27.9077C30.989 28.2571 31.1836 28.5369 31.445 28.7472C31.7092 28.9574 32.0415 29.0625 32.4421 29.0625ZM36.9112 30V23.4545H38.1342V24.5199H38.2152C38.3516 24.1591 38.5746 23.8778 38.8842 23.6761C39.1939 23.4716 39.5646 23.3693 39.9964 23.3693C40.4339 23.3693 40.8004 23.4716 41.0959 23.6761C41.3942 23.8807 41.6143 24.1619 41.7564 24.5199H41.8246C41.9808 24.1705 42.2294 23.892 42.5703 23.6847C42.9112 23.4744 43.3175 23.3693 43.7891 23.3693C44.3828 23.3693 44.8672 23.5554 45.2422 23.9276C45.62 24.2997 45.8089 24.8608 45.8089 25.6108V30H44.5348V25.7301C44.5348 25.2869 44.4141 24.9659 44.1726 24.767C43.9311 24.5682 43.6428 24.4688 43.3075 24.4688C42.8928 24.4688 42.5703 24.5966 42.3402 24.8523C42.1101 25.1051 41.995 25.4304 41.995 25.8281V30H40.7251V25.6491C40.7251 25.294 40.6143 25.0085 40.3928 24.7926C40.1712 24.5767 39.8828 24.4688 39.5277 24.4688C39.2862 24.4688 39.0632 24.5327 38.8587 24.6605C38.657 24.7855 38.4936 24.9602 38.3686 25.1847C38.2464 25.4091 38.1854 25.669 38.1854 25.9645V30H36.9112ZM47.5167 32.4545V23.4545H48.761V24.5156H48.8675C48.9414 24.3793 49.0479 24.2216 49.1871 24.0426C49.3263 23.8636 49.5195 23.7074 49.7667 23.5739C50.0138 23.4375 50.3406 23.3693 50.7468 23.3693C51.2752 23.3693 51.7468 23.5028 52.1616 23.7699C52.5763 24.0369 52.9016 24.4219 53.1374 24.9247C53.3761 25.4276 53.4954 26.0327 53.4954 26.7401C53.4954 27.4474 53.3775 28.054 53.1417 28.5597C52.9059 29.0625 52.582 29.4503 52.1701 29.723C51.7582 29.9929 51.288 30.1278 50.7596 30.1278C50.3619 30.1278 50.0366 30.0611 49.7837 29.9276C49.5337 29.794 49.3377 29.6378 49.1957 29.4588C49.0536 29.2798 48.9442 29.1207 48.8675 28.9815H48.7908V32.4545H47.5167ZM48.7653 26.7273C48.7653 27.1875 48.832 27.5909 48.9656 27.9375C49.0991 28.2841 49.2923 28.5554 49.5451 28.7514C49.7979 28.9446 50.1076 29.0412 50.4741 29.0412C50.8548 29.0412 51.1729 28.9403 51.4286 28.7386C51.6843 28.5341 51.8775 28.2571 52.0082 27.9077C52.1417 27.5582 52.2085 27.1648 52.2085 26.7273C52.2085 26.2955 52.1431 25.9077 52.0124 25.5639C51.8846 25.2202 51.6914 24.9489 51.4329 24.75C51.1772 24.5511 50.8576 24.4517 50.4741 24.4517C50.1048 24.4517 49.7923 24.5469 49.5366 24.7372C49.2837 24.9276 49.092 25.1932 48.9613 25.5341C48.8306 25.875 48.7653 26.2727 48.7653 26.7273ZM54.9229 30V23.4545H56.1545V24.4943H56.2227C56.342 24.142 56.5522 23.8651 56.8533 23.6634C57.1573 23.4588 57.5011 23.3565 57.8846 23.3565C57.9641 23.3565 58.0579 23.3594 58.1658 23.3651C58.2766 23.3707 58.3633 23.3778 58.4258 23.3864V24.6051C58.3746 24.5909 58.2837 24.5753 58.1531 24.5582C58.0224 24.5384 57.8917 24.5284 57.761 24.5284C57.4599 24.5284 57.1914 24.5923 56.9556 24.7202C56.7227 24.8452 56.538 25.0199 56.4016 25.2443C56.2653 25.4659 56.1971 25.7187 56.1971 26.0028V30H54.9229ZM62.0511 30.1321C61.4375 30.1321 60.902 29.9915 60.4446 29.7102C59.9872 29.429 59.6321 29.0355 59.3793 28.5298C59.1264 28.0241 59 27.4332 59 26.7571C59 26.0781 59.1264 25.4844 59.3793 24.9759C59.6321 24.4673 59.9872 24.0724 60.4446 23.7912C60.902 23.5099 61.4375 23.3693 62.0511 23.3693C62.6648 23.3693 63.2003 23.5099 63.6577 23.7912C64.1151 24.0724 64.4702 24.4673 64.723 24.9759C64.9759 25.4844 65.1023 26.0781 65.1023 26.7571C65.1023 27.4332 64.9759 28.0241 64.723 28.5298C64.4702 29.0355 64.1151 29.429 63.6577 29.7102C63.2003 29.9915 62.6648 30.1321 62.0511 30.1321ZM62.0554 29.0625C62.4531 29.0625 62.7827 28.9574 63.044 28.7472C63.3054 28.5369 63.4986 28.2571 63.6236 27.9077C63.7514 27.5582 63.8153 27.1733 63.8153 26.7528C63.8153 26.3352 63.7514 25.9517 63.6236 25.6023C63.4986 25.25 63.3054 24.9673 63.044 24.7543C62.7827 24.5412 62.4531 24.4347 62.0554 24.4347C61.6548 24.4347 61.3224 24.5412 61.0582 24.7543C60.7969 24.9673 60.6023 25.25 60.4744 25.6023C60.3494 25.9517 60.2869 26.3352 60.2869 26.7528C60.2869 27.1733 60.3494 27.5582 60.4744 27.9077C60.6023 28.2571 60.7969 28.5369 61.0582 28.7472C61.3224 28.9574 61.6548 29.0625 62.0554 29.0625ZM71.9013 23.4545L69.5277 30H68.1641L65.7862 23.4545H67.1541L68.8118 28.4915H68.88L70.5334 23.4545H71.9013ZM74.8161 30.1449C74.4013 30.1449 74.0263 30.0682 73.6911 29.9148C73.3558 29.7585 73.0902 29.5327 72.8942 29.2372C72.701 28.9418 72.6044 28.5795 72.6044 28.1506C72.6044 27.7812 72.6754 27.4773 72.8175 27.2386C72.9595 27 73.1513 26.8111 73.3928 26.6719C73.6342 26.5327 73.9041 26.4276 74.2024 26.3565C74.5007 26.2855 74.8047 26.2315 75.1143 26.1946C75.5064 26.1491 75.8246 26.1122 76.0689 26.0838C76.3132 26.0526 76.4908 26.0028 76.6016 25.9347C76.7124 25.8665 76.7678 25.7557 76.7678 25.6023V25.5724C76.7678 25.2003 76.6626 24.9119 76.4524 24.7074C76.245 24.5028 75.9354 24.4006 75.5234 24.4006C75.0945 24.4006 74.7564 24.4957 74.5092 24.6861C74.2649 24.8736 74.0959 25.0824 74.0021 25.3125L72.8047 25.0398C72.9467 24.642 73.1541 24.321 73.4268 24.0767C73.7024 23.8295 74.0192 23.6506 74.3771 23.5398C74.7351 23.4261 75.1115 23.3693 75.5064 23.3693C75.7678 23.3693 76.0447 23.4006 76.3374 23.4631C76.6328 23.5227 76.9084 23.6335 77.1641 23.7955C77.4226 23.9574 77.6342 24.1889 77.799 24.4901C77.9638 24.7884 78.0462 25.1761 78.0462 25.6534V30H76.8018V29.1051H76.7507C76.6683 29.2699 76.5447 29.4318 76.38 29.5909C76.2152 29.75 76.0036 29.8821 75.745 29.9872C75.4865 30.0923 75.1768 30.1449 74.8161 30.1449ZM75.093 29.1222C75.4453 29.1222 75.7464 29.0526 75.9964 28.9134C76.2493 28.7741 76.4411 28.5923 76.5717 28.3679C76.7053 28.1406 76.772 27.8977 76.772 27.6392V26.7955C76.7266 26.8409 76.6385 26.8835 76.5078 26.9233C76.38 26.9602 76.2337 26.9929 76.0689 27.0213C75.9041 27.0469 75.7436 27.071 75.5874 27.0938C75.4311 27.1136 75.3004 27.1307 75.1953 27.1449C74.9482 27.1761 74.7223 27.2287 74.5178 27.3026C74.3161 27.3764 74.1541 27.483 74.032 27.6222C73.9126 27.7585 73.853 27.9403 73.853 28.1676C73.853 28.483 73.9695 28.7216 74.2024 28.8835C74.4354 29.0426 74.7322 29.1222 75.093 29.1222ZM81.0174 26.1136V30H79.7433V23.4545H80.9663V24.5199H81.0472C81.1978 24.1733 81.4336 23.8949 81.7546 23.6847C82.0785 23.4744 82.4862 23.3693 82.9776 23.3693C83.4237 23.3693 83.8143 23.4631 84.1495 23.6506C84.4847 23.8352 84.7447 24.1108 84.9293 24.4773C85.114 24.8437 85.2063 25.2969 85.2063 25.8366V30H83.9322V25.9901C83.9322 25.5156 83.8086 25.1449 83.5614 24.8778C83.3143 24.608 82.9748 24.473 82.543 24.473C82.2475 24.473 81.9847 24.5369 81.7546 24.6648C81.5273 24.7926 81.3469 24.9801 81.2134 25.2273C81.0827 25.4716 81.0174 25.767 81.0174 26.1136ZM89.9705 23.4545V24.4773H86.3952V23.4545H89.9705ZM87.354 21.8864H88.6282V28.0781C88.6282 28.3253 88.6651 28.5114 88.739 28.6364C88.8129 28.7585 88.908 28.8423 89.0245 28.8878C89.1438 28.9304 89.2731 28.9517 89.4123 28.9517C89.5146 28.9517 89.604 28.9446 89.6808 28.9304C89.7575 28.9162 89.8171 28.9048 89.8597 28.8963L90.0898 29.9489C90.016 29.9773 89.9109 30.0057 89.7745 30.0341C89.6381 30.0653 89.4677 30.0824 89.2631 30.0852C88.9279 30.0909 88.6154 30.0312 88.3256 29.9062C88.0359 29.7812 87.8015 29.5881 87.6225 29.3267C87.4435 29.0653 87.354 28.7372 87.354 28.3423V21.8864ZM94.1307 30.1321C93.4858 30.1321 92.9304 29.9943 92.4645 29.7188C92.0014 29.4403 91.6435 29.0497 91.3906 28.5469C91.1406 28.0412 91.0156 27.4489 91.0156 26.7699C91.0156 26.0994 91.1406 25.5085 91.3906 24.9972C91.6435 24.4858 91.9957 24.0866 92.4474 23.7997C92.902 23.5128 93.4332 23.3693 94.0412 23.3693C94.4105 23.3693 94.7685 23.4304 95.1151 23.5526C95.4616 23.6747 95.7727 23.8665 96.0483 24.1278C96.3239 24.3892 96.5412 24.7287 96.7003 25.1463C96.8594 25.5611 96.9389 26.0653 96.9389 26.6591V27.1108H91.7358V26.1562H95.6903C95.6903 25.821 95.6222 25.5241 95.4858 25.2656C95.3494 25.0043 95.1577 24.7983 94.9105 24.6477C94.6662 24.4972 94.3793 24.4219 94.0497 24.4219C93.6918 24.4219 93.3793 24.5099 93.1122 24.6861C92.848 24.8594 92.6435 25.0866 92.4986 25.3679C92.3565 25.6463 92.2855 25.9489 92.2855 26.2756V27.0213C92.2855 27.4588 92.3622 27.831 92.5156 28.1378C92.6719 28.4446 92.8892 28.679 93.1676 28.8409C93.446 29 93.7713 29.0795 94.1435 29.0795C94.3849 29.0795 94.6051 29.0455 94.804 28.9773C95.0028 28.9062 95.1747 28.8011 95.3196 28.6619C95.4645 28.5227 95.5753 28.3509 95.652 28.1463L96.858 28.3636C96.7614 28.7187 96.5881 29.0298 96.3381 29.2969C96.0909 29.5611 95.7798 29.767 95.4048 29.9148C95.0327 30.0597 94.608 30.1321 94.1307 30.1321ZM103.979 30.1278C103.45 30.1278 102.979 29.9929 102.564 29.723C102.152 29.4503 101.828 29.0625 101.592 28.5597C101.359 28.054 101.243 27.4474 101.243 26.7401C101.243 26.0327 101.361 25.4276 101.597 24.9247C101.835 24.4219 102.162 24.0369 102.577 23.7699C102.991 23.5028 103.462 23.3693 103.987 23.3693C104.393 23.3693 104.72 23.4375 104.967 23.5739C105.217 23.7074 105.411 23.8636 105.547 24.0426C105.686 24.2216 105.794 24.3793 105.871 24.5156H105.947V21.2727H107.222V30H105.977V28.9815H105.871C105.794 29.1207 105.683 29.2798 105.538 29.4588C105.396 29.6378 105.2 29.794 104.95 29.9276C104.7 30.0611 104.376 30.1278 103.979 30.1278ZM104.26 29.0412C104.626 29.0412 104.936 28.9446 105.189 28.7514C105.445 28.5554 105.638 28.2841 105.768 27.9375C105.902 27.5909 105.969 27.1875 105.969 26.7273C105.969 26.2727 105.903 25.875 105.773 25.5341C105.642 25.1932 105.45 24.9276 105.197 24.7372C104.945 24.5469 104.632 24.4517 104.26 24.4517C103.876 24.4517 103.557 24.5511 103.301 24.75C103.045 24.9489 102.852 25.2202 102.722 25.5639C102.594 25.9077 102.53 26.2955 102.53 26.7273C102.53 27.1648 102.595 27.5582 102.726 27.9077C102.857 28.2571 103.05 28.5341 103.305 28.7386C103.564 28.9403 103.882 29.0412 104.26 29.0412ZM111.861 30.1321C111.216 30.1321 110.661 29.9943 110.195 29.7188C109.732 29.4403 109.374 29.0497 109.121 28.5469C108.871 28.0412 108.746 27.4489 108.746 26.7699C108.746 26.0994 108.871 25.5085 109.121 24.9972C109.374 24.4858 109.726 24.0866 110.178 23.7997C110.632 23.5128 111.164 23.3693 111.772 23.3693C112.141 23.3693 112.499 23.4304 112.846 23.5526C113.192 23.6747 113.503 23.8665 113.779 24.1278C114.054 24.3892 114.272 24.7287 114.431 25.1463C114.59 25.5611 114.669 26.0653 114.669 26.6591V27.1108H109.466V26.1562H113.421C113.421 25.821 113.353 25.5241 113.216 25.2656C113.08 25.0043 112.888 24.7983 112.641 24.6477C112.397 24.4972 112.11 24.4219 111.78 24.4219C111.422 24.4219 111.11 24.5099 110.843 24.6861C110.578 24.8594 110.374 25.0866 110.229 25.3679C110.087 25.6463 110.016 25.9489 110.016 26.2756V27.0213C110.016 27.4588 110.093 27.831 110.246 28.1378C110.402 28.4446 110.62 28.679 110.898 28.8409C111.176 29 111.502 29.0795 111.874 29.0795C112.115 29.0795 112.336 29.0455 112.534 28.9773C112.733 28.9062 112.905 28.8011 113.05 28.6619C113.195 28.5227 113.306 28.3509 113.382 28.1463L114.588 28.3636C114.492 28.7187 114.319 29.0298 114.069 29.2969C113.821 29.5611 113.51 29.767 113.135 29.9148C112.763 30.0597 112.338 30.1321 111.861 30.1321ZM121.709 30.1278C121.181 30.1278 120.709 29.9929 120.294 29.723C119.882 29.4503 119.559 29.0625 119.323 28.5597C119.09 28.054 118.973 27.4474 118.973 26.7401C118.973 26.0327 119.091 25.4276 119.327 24.9247C119.566 24.4219 119.892 24.0369 120.307 23.7699C120.722 23.5028 121.192 23.3693 121.718 23.3693C122.124 23.3693 122.451 23.4375 122.698 23.5739C122.948 23.7074 123.141 23.8636 123.277 24.0426C123.417 24.2216 123.525 24.3793 123.601 24.5156H123.678V21.2727H124.952V30H123.708V28.9815H123.601C123.525 29.1207 123.414 29.2798 123.269 29.4588C123.127 29.6378 122.931 29.794 122.681 29.9276C122.431 30.0611 122.107 30.1278 121.709 30.1278ZM121.99 29.0412C122.357 29.0412 122.667 28.9446 122.919 28.7514C123.175 28.5554 123.368 28.2841 123.499 27.9375C123.632 27.5909 123.699 27.1875 123.699 26.7273C123.699 26.2727 123.634 25.875 123.503 25.5341C123.373 25.1932 123.181 24.9276 122.928 24.7372C122.675 24.5469 122.363 24.4517 121.99 24.4517C121.607 24.4517 121.287 24.5511 121.032 24.75C120.776 24.9489 120.583 25.2202 120.452 25.5639C120.324 25.9077 120.26 26.2955 120.26 26.7273C120.26 27.1648 120.326 27.5582 120.456 27.9077C120.587 28.2571 120.78 28.5341 121.036 28.7386C121.294 28.9403 121.613 29.0412 121.99 29.0412ZM129.528 30.1321C128.914 30.1321 128.379 29.9915 127.921 29.7102C127.464 29.429 127.109 29.0355 126.856 28.5298C126.603 28.0241 126.477 27.4332 126.477 26.7571C126.477 26.0781 126.603 25.4844 126.856 24.9759C127.109 24.4673 127.464 24.0724 127.921 23.7912C128.379 23.5099 128.914 23.3693 129.528 23.3693C130.141 23.3693 130.677 23.5099 131.134 23.7912C131.592 24.0724 131.947 24.4673 132.2 24.9759C132.452 25.4844 132.579 26.0781 132.579 26.7571C132.579 27.4332 132.452 28.0241 132.2 28.5298C131.947 29.0355 131.592 29.429 131.134 29.7102C130.677 29.9915 130.141 30.1321 129.528 30.1321ZM129.532 29.0625C129.93 29.0625 130.259 28.9574 130.521 28.7472C130.782 28.5369 130.975 28.2571 131.1 27.9077C131.228 27.5582 131.292 27.1733 131.292 26.7528C131.292 26.3352 131.228 25.9517 131.1 25.6023C130.975 25.25 130.782 24.9673 130.521 24.7543C130.259 24.5412 129.93 24.4347 129.532 24.4347C129.131 24.4347 128.799 24.5412 128.535 24.7543C128.273 24.9673 128.079 25.25 127.951 25.6023C127.826 25.9517 127.763 26.3352 127.763 26.7528C127.763 27.1733 127.826 27.5582 127.951 27.9077C128.079 28.2571 128.273 28.5369 128.535 28.7472C128.799 28.9574 129.131 29.0625 129.532 29.0625ZM135.906 30.1449C135.491 30.1449 135.116 30.0682 134.781 29.9148C134.446 29.7585 134.18 29.5327 133.984 29.2372C133.791 28.9418 133.694 28.5795 133.694 28.1506C133.694 27.7812 133.765 27.4773 133.907 27.2386C134.049 27 134.241 26.8111 134.483 26.6719C134.724 26.5327 134.994 26.4276 135.292 26.3565C135.591 26.2855 135.895 26.2315 136.204 26.1946C136.596 26.1491 136.914 26.1122 137.159 26.0838C137.403 26.0526 137.581 26.0028 137.691 25.9347C137.802 25.8665 137.858 25.7557 137.858 25.6023V25.5724C137.858 25.2003 137.752 24.9119 137.542 24.7074C137.335 24.5028 137.025 24.4006 136.613 24.4006C136.184 24.4006 135.846 24.4957 135.599 24.6861C135.355 24.8736 135.186 25.0824 135.092 25.3125L133.895 25.0398C134.037 24.642 134.244 24.321 134.517 24.0767C134.792 23.8295 135.109 23.6506 135.467 23.5398C135.825 23.4261 136.201 23.3693 136.596 23.3693C136.858 23.3693 137.135 23.4006 137.427 23.4631C137.723 23.5227 137.998 23.6335 138.254 23.7955C138.512 23.9574 138.724 24.1889 138.889 24.4901C139.054 24.7884 139.136 25.1761 139.136 25.6534V30H137.892V29.1051H137.841C137.758 29.2699 137.635 29.4318 137.47 29.5909C137.305 29.75 137.093 29.8821 136.835 29.9872C136.576 30.0923 136.267 30.1449 135.906 30.1449ZM136.183 29.1222C136.535 29.1222 136.836 29.0526 137.086 28.9134C137.339 28.7741 137.531 28.5923 137.662 28.3679C137.795 28.1406 137.862 27.8977 137.862 27.6392V26.7955C137.816 26.8409 137.728 26.8835 137.598 26.9233C137.47 26.9602 137.324 26.9929 137.159 27.0213C136.994 27.0469 136.833 27.071 136.677 27.0938C136.521 27.1136 136.39 27.1307 136.285 27.1449C136.038 27.1761 135.812 27.2287 135.608 27.3026C135.406 27.3764 135.244 27.483 135.122 27.6222C135.002 27.7585 134.943 27.9403 134.943 28.1676C134.943 28.483 135.059 28.7216 135.292 28.8835C135.525 29.0426 135.822 29.1222 136.183 29.1222ZM143.59 30.1321C142.957 30.1321 142.411 29.9886 141.954 29.7017C141.499 29.4119 141.15 29.0128 140.906 28.5043C140.661 27.9957 140.539 27.4134 140.539 26.7571C140.539 26.0923 140.664 25.5057 140.914 24.9972C141.164 24.4858 141.516 24.0866 141.971 23.7997C142.425 23.5128 142.961 23.3693 143.577 23.3693C144.075 23.3693 144.518 23.4616 144.907 23.6463C145.296 23.8281 145.61 24.0838 145.849 24.4134C146.09 24.7429 146.234 25.1278 146.279 25.5682H145.039C144.971 25.2614 144.815 24.9972 144.57 24.7756C144.329 24.554 144.005 24.4432 143.599 24.4432C143.244 24.4432 142.933 24.5369 142.665 24.7244C142.401 24.9091 142.195 25.1733 142.048 25.517C141.9 25.858 141.826 26.2614 141.826 26.7273C141.826 27.2045 141.898 27.6165 142.043 27.9631C142.188 28.3097 142.393 28.5781 142.657 28.7685C142.924 28.9588 143.238 29.054 143.599 29.054C143.84 29.054 144.059 29.0099 144.255 28.9219C144.454 28.831 144.62 28.7017 144.754 28.5341C144.89 28.3665 144.985 28.1648 145.039 27.929H146.279C146.234 28.3523 146.096 28.7301 145.866 29.0625C145.636 29.3949 145.327 29.6562 144.941 29.8466C144.558 30.0369 144.107 30.1321 143.59 30.1321ZM143.13 29.9659H143.965L143.897 30.3153C144.144 30.3551 144.36 30.4545 144.545 30.6136C144.729 30.7727 144.822 31.0128 144.822 31.3338C144.825 31.7173 144.658 32.0284 144.323 32.267C143.991 32.5057 143.509 32.625 142.879 32.625L142.853 31.9134C143.148 31.9134 143.387 31.8707 143.569 31.7855C143.754 31.7003 143.847 31.5625 143.85 31.3722C143.853 31.1818 143.782 31.0483 143.637 30.9716C143.495 30.8949 143.268 30.8409 142.955 30.8097L143.13 29.9659ZM149.547 30.1449C149.132 30.1449 148.757 30.0682 148.422 29.9148C148.086 29.7585 147.821 29.5327 147.625 29.2372C147.431 28.9418 147.335 28.5795 147.335 28.1506C147.335 27.7812 147.406 27.4773 147.548 27.2386C147.69 27 147.882 26.8111 148.123 26.6719C148.365 26.5327 148.635 26.4276 148.933 26.3565C149.231 26.2855 149.535 26.2315 149.845 26.1946C150.237 26.1491 150.555 26.1122 150.799 26.0838C151.044 26.0526 151.221 26.0028 151.332 25.9347C151.443 25.8665 151.498 25.7557 151.498 25.6023V25.5724C151.498 25.2003 151.393 24.9119 151.183 24.7074C150.975 24.5028 150.666 24.4006 150.254 24.4006C149.825 24.4006 149.487 24.4957 149.24 24.6861C148.995 24.8736 148.826 25.0824 148.733 25.3125L147.535 25.0398C147.677 24.642 147.885 24.321 148.157 24.0767C148.433 23.8295 148.75 23.6506 149.108 23.5398C149.466 23.4261 149.842 23.3693 150.237 23.3693C150.498 23.3693 150.775 23.4006 151.068 23.4631C151.363 23.5227 151.639 23.6335 151.895 23.7955C152.153 23.9574 152.365 24.1889 152.529 24.4901C152.694 24.7884 152.777 25.1761 152.777 25.6534V30H151.532V29.1051H151.481C151.399 29.2699 151.275 29.4318 151.11 29.5909C150.946 29.75 150.734 29.8821 150.475 29.9872C150.217 30.0923 149.907 30.1449 149.547 30.1449ZM149.824 29.1222C150.176 29.1222 150.477 29.0526 150.727 28.9134C150.98 28.7741 151.172 28.5923 151.302 28.3679C151.436 28.1406 151.502 27.8977 151.502 27.6392V26.7955C151.457 26.8409 151.369 26.8835 151.238 26.9233C151.11 26.9602 150.964 26.9929 150.799 27.0213C150.635 27.0469 150.474 27.071 150.318 27.0938C150.162 27.1136 150.031 27.1307 149.926 27.1449C149.679 27.1761 149.453 27.2287 149.248 27.3026C149.047 27.3764 148.885 27.483 148.762 27.6222C148.643 27.7585 148.583 27.9403 148.583 28.1676C148.583 28.483 148.7 28.7216 148.933 28.8835C149.166 29.0426 149.463 29.1222 149.824 29.1222ZM149.022 22.6619L148.166 22.6364C148.166 22.1648 148.292 21.7884 148.545 21.5071C148.801 21.2259 149.116 21.0852 149.491 21.0852C149.664 21.0852 149.816 21.1151 149.947 21.1747C150.078 21.2315 150.2 21.2983 150.314 21.375C150.43 21.4489 150.545 21.5156 150.659 21.5753C150.775 21.6321 150.904 21.6605 151.047 21.6605C151.211 21.6605 151.345 21.598 151.447 21.473C151.552 21.348 151.605 21.1932 151.605 21.0085L152.444 21.0639C152.444 21.5384 152.316 21.9119 152.061 22.1847C151.805 22.4545 151.491 22.5909 151.119 22.5938C150.917 22.5938 150.75 22.5653 150.616 22.5085C150.485 22.4489 150.369 22.3821 150.267 22.3082C150.164 22.2315 150.059 22.1634 149.951 22.1037C149.843 22.044 149.714 22.0142 149.564 22.0142C149.404 22.0142 149.274 22.0767 149.172 22.2017C149.072 22.3239 149.022 22.4773 149.022 22.6619ZM157.231 30.1321C156.617 30.1321 156.082 29.9915 155.624 29.7102C155.167 29.429 154.812 29.0355 154.559 28.5298C154.306 28.0241 154.18 27.4332 154.18 26.7571C154.18 26.0781 154.306 25.4844 154.559 24.9759C154.812 24.4673 155.167 24.0724 155.624 23.7912C156.082 23.5099 156.617 23.3693 157.231 23.3693C157.844 23.3693 158.38 23.5099 158.837 23.7912C159.295 24.0724 159.65 24.4673 159.903 24.9759C160.156 25.4844 160.282 26.0781 160.282 26.7571C160.282 27.4332 160.156 28.0241 159.903 28.5298C159.65 29.0355 159.295 29.429 158.837 29.7102C158.38 29.9915 157.844 30.1321 157.231 30.1321ZM157.235 29.0625C157.633 29.0625 157.962 28.9574 158.224 28.7472C158.485 28.5369 158.678 28.2571 158.803 27.9077C158.931 27.5582 158.995 27.1733 158.995 26.7528C158.995 26.3352 158.931 25.9517 158.803 25.6023C158.678 25.25 158.485 24.9673 158.224 24.7543C157.962 24.5412 157.633 24.4347 157.235 24.4347C156.835 24.4347 156.502 24.5412 156.238 24.7543C155.977 24.9673 155.782 25.25 155.654 25.6023C155.529 25.9517 155.467 26.3352 155.467 26.7528C155.467 27.1733 155.529 27.5582 155.654 27.9077C155.782 28.2571 155.977 28.5369 156.238 28.7472C156.502 28.9574 156.835 29.0625 157.235 29.0625ZM162.544 30.081C162.311 30.081 162.11 29.9986 161.943 29.8338C161.775 29.6662 161.691 29.4645 161.691 29.2287C161.691 28.9957 161.775 28.7969 161.943 28.6321C162.11 28.4645 162.311 28.3807 162.544 28.3807C162.777 28.3807 162.977 28.4645 163.145 28.6321C163.312 28.7969 163.396 28.9957 163.396 29.2287C163.396 29.3849 163.356 29.5284 163.277 29.6591C163.2 29.7869 163.098 29.8892 162.97 29.9659C162.842 30.0426 162.7 30.081 162.544 30.081ZM162.544 25.3168C162.311 25.3168 162.11 25.233 161.943 25.0653C161.775 24.8977 161.691 24.6974 161.691 24.4645C161.691 24.2315 161.775 24.0327 161.943 23.8679C162.11 23.7003 162.311 23.6165 162.544 23.6165C162.777 23.6165 162.977 23.7003 163.145 23.8679C163.312 24.0327 163.396 24.2315 163.396 24.4645C163.396 24.6207 163.356 24.7642 163.277 24.8949C163.2 25.0227 163.098 25.125 162.97 25.2017C162.842 25.2784 162.7 25.3168 162.544 25.3168Z" fill="#6A6180"/>
<path d="M23.5 59C23.5 54.8579 26.8579 51.5 31 51.5H270C274.142 51.5 277.5 54.8579 277.5 59V209C277.5 213.142 274.142 216.5 270 216.5H31C26.8579 216.5 23.5 213.142 23.5 209V59Z" fill="#C1BCCC" fill-opacity="0.1" stroke="#E6E6F0"/>
<path d="M160 116V123.333C160 123.82 160.211 124.286 160.586 124.63C160.961 124.974 161.47 125.167 162 125.167H170M160 116H146C144.939 116 143.922 116.386 143.172 117.074C142.421 117.762 142 118.694 142 119.667V145.333C142 146.306 142.421 147.238 143.172 147.926C143.922 148.614 144.939 149 146 149H166C167.061 149 168.078 148.614 168.828 147.926C169.579 147.238 170 146.306 170 145.333V125.167M160 116L170 125.167M156 130.667V141.667M150 136.167H162" stroke="#6A6180" stroke-width="2" stroke-linecap="round" stroke-linejoin="round"/>
</svg>
