<svg width="255" height="166" viewBox="0 0 255 166" fill="none" xmlns="http://www.w3.org/2000/svg">
<path d="M0.5 8C0.5 3.85787 3.85787 0.5 8 0.5H247C251.142 0.5 254.5 3.85786 254.5 8V158C254.5 162.142 251.142 165.5 247 165.5H8C3.85786 165.5 0.5 162.142 0.5 158V8Z" fill="#C1BCCC" fill-opacity="0.1" stroke="#E6E6F0"/>
<path d="M137 65V72.3333C137 72.8196 137.211 73.2859 137.586 73.6297C137.961 73.9735 138.47 74.1667 139 74.1667H147M137 65H123C121.939 65 120.922 65.3863 120.172 66.0739C119.421 66.7616 119 67.6942 119 68.6667V94.3333C119 95.3058 119.421 96.2384 120.172 96.9261C120.922 97.6137 121.939 98 123 98H143C144.061 98 145.078 97.6137 145.828 96.9261C146.579 96.2384 147 95.3058 147 94.3333V74.1667M137 65L147 74.1667M133 79.6667V90.6667M127 85.1667H139" stroke="#6A6180" stroke-width="2" stroke-linecap="round" stroke-linejoin="round"/>
</svg>
