<svg width="30" height="31" viewBox="0 0 30 31" fill="none" xmlns="http://www.w3.org/2000/svg">
<g id="user id">
<path id="XMLID 680" d="M19.0813 17.8715C21.0063 17.8715 22.5813 16.2515 22.5813 14.2715C22.5813 12.2915 21.0063 10.6715 19.0813 10.6715C17.1563 10.6715 15.5813 12.2915 15.5813 14.2715C15.5813 16.2515 17.1563 17.8715 19.0813 17.8715ZM19.0813 12.2144C20.1813 12.2144 21.0813 13.1401 21.0813 14.2715C21.0813 15.4029 20.1813 16.3286 19.0813 16.3286C17.9813 16.3286 17.0813 15.4029 17.0813 14.2715C17.0813 13.1401 17.9813 12.2144 19.0813 12.2144ZM7.43135 12.6001C7.43135 12.1629 7.75635 11.8286 8.18135 11.8286H12.5313C12.9563 11.8286 13.2813 12.1629 13.2813 12.6001C13.2813 13.0372 12.9563 13.3715 12.5313 13.3715H8.18135C7.75635 13.3715 7.43135 13.0372 7.43135 12.6001ZM12.5313 16.2001H8.18135C7.75635 16.2001 7.43135 15.8658 7.43135 15.4286C7.43135 14.9915 7.75635 14.6572 8.18135 14.6572H12.5313C12.9563 14.6572 13.2813 14.9915 13.2813 15.4286C13.2813 15.8658 12.9563 16.2001 12.5313 16.2001ZM11.4314 18.2572C11.4314 18.6944 11.1064 19.0286 10.6814 19.0286H8.15634C7.73134 19.0286 7.40634 18.6944 7.40634 18.2572C7.40634 17.8201 7.73134 17.4858 8.15634 17.4858H10.6814C11.1064 17.4858 11.4314 17.8201 11.4314 18.2572ZM26.5063 9.41152C26.5063 8.48581 25.7564 7.71436 24.8564 7.71436H5.15634C4.25634 7.71436 3.50635 8.48581 3.50635 9.41152V21.4458C3.50635 22.3715 4.25634 23.1429 5.15634 23.1429H24.8564C25.7564 23.1429 26.5063 22.3715 26.5063 21.4458V9.41152ZM5.50635 9.7715H24.5063V20.4943C23.5063 19.4143 21.5814 18.6943 20.8564 18.4372C20.7064 18.3858 20.5314 18.3858 20.3564 18.4372L19.0813 18.9001L17.8064 18.4372C17.6564 18.3858 17.4814 18.4115 17.3064 18.4629C16.4814 18.7458 14.1064 19.5429 13.2314 21.0858H5.50635V9.7715ZM15.4314 21.0858C16.0064 20.5715 16.7564 20.3144 17.5564 20.0058L18.8313 20.4687C18.9813 20.5201 19.1813 20.5201 19.3313 20.4687L20.6064 20.0315C21.4064 20.34 22.1564 20.5972 22.7314 21.1115H15.4314V21.0858Z" fill="white"/>
</g>
</svg>
