<svg width="24" height="24" viewBox="0 0 24 24" fill="none" xmlns="http://www.w3.org/2000/svg">
<g id="view list large">
<path id="XMLID 1045" d="M20.1252 11.0599H11.1852C10.5852 11.0599 10.1052 10.5799 10.1052 9.97994V7.27994C10.1052 6.67994 10.5852 6.19993 11.1852 6.19993H20.1252C20.7252 6.19993 21.2052 6.67994 21.2052 7.27994V9.97994C21.2052 10.5799 20.7252 11.0599 20.1252 11.0599ZM11.6852 9.45994H19.6052V7.79993H11.6852V9.45994ZM20.1252 17.7999H11.1852C10.5852 17.7999 10.1052 17.3199 10.1052 16.7199V14.0199C10.1052 13.4199 10.5852 12.9399 11.1852 12.9399H20.1252C20.7252 12.9399 21.2052 13.4199 21.2052 14.0199V16.7199C21.2052 17.3199 20.7252 17.7999 20.1252 17.7999ZM11.6852 16.1999H19.6052V14.5399H11.6852V16.1999ZM7.54518 11.0599H3.92518C3.30518 11.0599 2.80518 10.5599 2.80518 9.93992V7.29993C2.80518 6.67993 3.30518 6.17994 3.92518 6.17994H7.54518C8.16518 6.17994 8.66518 6.67993 8.66518 7.29993V9.93992C8.66518 10.5599 8.16518 11.0599 7.54518 11.0599ZM4.40518 9.45994H7.06518V7.79993H4.40518V9.45994ZM7.54518 17.7999H3.92518C3.30518 17.7999 2.80518 17.2999 2.80518 16.6799V14.0399C2.80518 13.4199 3.30518 12.9199 3.92518 12.9199H7.54518C8.16518 12.9199 8.66518 13.4199 8.66518 14.0399V16.6799C8.66518 17.2999 8.16518 17.7999 7.54518 17.7999ZM4.40518 16.1999H7.06518V14.5399H4.40518V16.1999Z" fill="white"/>
</g>
</svg>
